<?xml version="1.0" encoding="utf-8"?>
<!-- Generator: Adobe Illustrator 27.2.0, SVG Export Plug-In . SVG Version: 6.00 Build 0)  -->
<svg version="1.1" id="Layer_1" xmlns="http://www.w3.org/2000/svg" xmlns:xlink="http://www.w3.org/1999/xlink" x="0px" y="0px"
	 viewBox="0 0 104.47 30" style="enable-background:new 0 0 104.47 30;" xml:space="preserve">
<style type="text/css">
	.st0{fill:#FFC516;}
	.st1{fill:#716AB0;}
	.st2{opacity:0.1;fill:#CA76B0;}
	.st3{fill:#D28EBE;}
	.st4{fill:#AF59A3;}
	.st5{fill:#C876B0;}
	.st6{fill:#9A4C96;}
	.st7{fill:#E0AED0;}
	.st8{fill:#AC519E;}
	.st9{fill:#FDC20F;}
	.st10{fill:#C674B0;}
	.st11{fill:#B85AA2;}
	.st12{opacity:0.5;fill:#C876B0;}
	.st13{fill:#FFFFFF;stroke:#FFFFFF;stroke-width:0.2708;stroke-miterlimit:10;}
	.st14{fill:none;stroke:#FFFFFF;stroke-width:0.6;stroke-miterlimit:10;}
	.st15{fill:none;stroke:#FFFFFF;stroke-width:0.6;stroke-miterlimit:10;stroke-dasharray:0.7929,0.3965;}
	.st16{opacity:0.5;fill:#FFFFFF;stroke:#FFFFFF;stroke-width:0.2708;stroke-miterlimit:10;}
	.st17{opacity:0.3;fill:#FFFFFF;stroke:#FFFFFF;stroke-width:0.2708;stroke-miterlimit:10;}
	.st18{fill:none;stroke:#CFD2D3;stroke-width:0.4;stroke-miterlimit:10;}
	.st19{fill:#6E7071;stroke:#CFD2D3;stroke-width:0.4;stroke-miterlimit:10;}
</style>
<rect x="46.24" y="0" class="st0" width="5" height="5"/>
<rect x="39.2" y="0" transform="matrix(-1 -4.511115e-11 4.511115e-11 -1 83.3999 30)" class="st0" width="5" height="30"/>
<circle class="st1" cx="33.4" cy="19.2" r="10.8"/>
<path class="st2" d="M1.6,13.56C0.59,15.2,0,17.13,0,19.2C0,25.16,4.84,30,10.8,30c4.95,0,9.12-3.34,10.39-7.89L1.6,13.56z"/>
<path class="st3" d="M5.94,9.56C2.42,11.34,0,14.99,0,19.2C0,25.16,4.84,30,10.8,30c1.98,0,3.84-0.54,5.43-1.48L5.94,9.56z"/>
<path class="st4" d="M19.88,13.37L0.44,22.22C1.74,26.71,5.88,30,10.8,30c5.96,0,10.8-4.84,10.8-10.8
	C21.6,17.05,20.96,15.05,19.88,13.37z"/>
<path class="st5" d="M15.62,9.54L5.33,28.5C6.93,29.45,8.8,30,10.8,30c5.96,0,10.8-4.84,10.8-10.8
	C21.6,14.97,19.16,11.31,15.62,9.54z"/>
<path class="st6" d="M3.87,27.48C5.75,29.05,8.16,30,10.8,30c2.64,0,5.05-0.95,6.93-2.52H3.87z"/>
<path class="st7" d="M20.52,14.52C18.78,10.9,15.09,8.4,10.8,8.4c-4.29,0-7.98,2.5-9.72,6.12H20.52z"/>
<g>
	<path class="st8" d="M0,19.2V30h5h5.8C4.84,30,0,25.16,0,19.2z"/>
	<path class="st8" d="M10.8,30h10.8V19.2C21.6,25.16,16.76,30,10.8,30z"/>
	<path class="st9" d="M5,10.1V0H0v19.2C0,15.37,2,12.02,5,10.1z"/>
</g>
<rect x="46.27" y="8.4" class="st0" width="5" height="21.6"/>
<rect x="82.87" y="0" class="st0" width="5" height="30"/>
<rect x="75.87" y="8.4" class="st0" width="5" height="21.6"/>
<circle class="st1" cx="93.67" cy="19.2" r="10.8"/>
<circle class="st10" cx="70.07" cy="19.2" r="10.8"/>
<rect x="53.27" y="0" class="st0" width="5" height="30"/>
<path class="st11" d="M17.71,27.48c2.37-1.98,3.89-4.95,3.89-8.28c0-3.5-1.67-6.6-4.25-8.57v16.86"/>
<path class="st12" d="M10.8,8.4c-2.41,0-4.63,0.8-6.43,2.13v17.33C6.17,29.2,8.39,30,10.8,30c5.96,0,10.8-4.84,10.8-10.8
	C21.6,13.24,16.76,8.4,10.8,8.4z"/>
<circle class="st13" cx="10.8" cy="16.25" r="0.65"/>
<rect x="33.69" y="19.49" transform="matrix(-1.094787e-11 1 -1 -1.094787e-11 63.691 -13.9089)" class="st1" width="10.22" height="10.8"/>
<rect x="82.87" y="19.2" transform="matrix(-1.836970e-16 1 -1 -1.836970e-16 112.8726 -63.6726)" class="st1" width="10.8" height="10.8"/>
<g>
	<g>
		<line class="st14" x1="25.11" y1="26.12" x2="25.39" y2="25.84"/>
		<line class="st15" x1="25.68" y1="25.56" x2="39.83" y2="11.4"/>
		<line class="st14" x1="39.97" y1="11.26" x2="40.26" y2="10.98"/>
	</g>
</g>
<circle class="st13" cx="36.46" cy="13.24" r="0.65"/>
<circle class="st16" cx="36.82" cy="12.85" r="0.65"/>
<circle class="st17" cx="37.24" cy="12.46" r="0.65"/>
<polyline class="st18" points="48.74,30 48.74,2.5 40.26,10.98 "/>
<line class="st19" x1="51.27" y1="29.8" x2="46.27" y2="29.8"/>
</svg>
