<?xml version="1.0" encoding="UTF-8"?><svg id="Logo" xmlns="http://www.w3.org/2000/svg" viewBox="0 0 122.92 40.65"><defs><style>.cls-1{fill:#ca972b;}.cls-2{fill:#d8a029;}.cls-3{opacity:.4;}.cls-3,.cls-4,.cls-5,.cls-6,.cls-7{fill:#716ab0;}.cls-5{opacity:.2;}.cls-6{opacity:.3;}.cls-8{fill:#b85aa2;}.cls-9{fill:#f5b51a;}.cls-10{fill:#f3ab1d;}.cls-11{fill:#c674b0;}.cls-12{fill:#e0aed0;}.cls-13{fill:#e5ad23;}.cls-14{fill:#fff;stroke:#fff;stroke-miterlimit:10;stroke-width:.27px;}.cls-15{fill:#be892c;}.cls-16,.cls-17{fill:#c876b0;}.cls-18{fill:#d28ebe;}.cls-19{fill:#b05da4;}.cls-20{fill:#b863a7;}.cls-21,.cls-17,.cls-7{opacity:.5;}.cls-21,.cls-22{fill:#ffc516;}.cls-23{fill:#fdc20f;}.cls-24{fill:#ca992c;}.cls-25{fill:#f1a91e;}.cls-26{fill:#d29ac5;}.cls-27{fill:#ca76b0;opacity:.1;}.cls-28{fill:#9a4c96;}.cls-29{fill:#fdb518;}.cls-30{fill:#e5a424;}.cls-31{fill:#ac519e;}.cls-32{fill:#af59a3;}</style></defs><path class="cls-23" d="m15.81,10.11V.01h-5v19.2c0-3.83,2-7.18,5-9.1Z"/><polygon class="cls-22" points="55.01 7.1 55.01 .01 50.01 .01 50.01 12.1 55.01 7.1"/><rect class="cls-10" x="89.18" y="8.41" width="2.5" height="21.6"/><rect class="cls-22" x="93.68" y=".01" width="2.5" height="30"/><path class="cls-4" d="m115.23,18.28h-21.51c-.28,3.08.76,6.26,3.12,8.61,4.22,4.22,11.06,4.22,15.27,0,2.36-2.36,3.4-5.53,3.12-8.61Z"/><rect class="cls-22" x="57.04" y=".01" width="5" height="5"/><path class="cls-27" d="m12.41,13.57c-1.01,1.64-1.6,3.57-1.6,5.64,0,5.96,4.84,10.8,10.8,10.8,4.95,0,9.12-3.34,10.39-7.89L12.41,13.57Z"/><path class="cls-18" d="m16.75,9.58c-3.52,1.78-5.94,5.42-5.94,9.64,0,5.96,4.84,10.8,10.8,10.8,1.98,0,3.84-.54,5.43-1.48l-10.29-18.96Z"/><path class="cls-32" d="m30.69,13.38l-19.44,8.85c1.31,4.5,5.45,7.78,10.36,7.78,5.96,0,10.8-4.84,10.8-10.8,0-2.15-.64-4.15-1.72-5.83Z"/><path class="cls-16" d="m26.42,9.56l-10.29,18.96c1.61.95,3.47,1.5,5.47,1.5,5.96,0,10.8-4.84,10.8-10.8,0-4.23-2.44-7.89-5.98-9.66Z"/><path class="cls-28" d="m14.68,27.49c1.88,1.57,4.29,2.52,6.93,2.52s5.05-.95,6.93-2.52h-13.85Z"/><path class="cls-12" d="m31.33,14.54c-1.74-3.62-5.44-6.12-9.72-6.12s-7.98,2.5-9.72,6.12h19.45Z"/><rect class="cls-9" x="59.54" y="8.41" width="2.54" height="21.6"/><path class="cls-11" d="m73.24,11.58c-4.22,4.22-4.22,11.06,0,15.27l7.64-7.64-7.64-7.64Z"/><rect class="cls-22" x="64.08" y=".01" width="2.5" height="30"/><path class="cls-8" d="m28.52,27.49c2.37-1.98,3.89-4.95,3.89-8.28,0-3.5-1.67-6.6-4.25-8.57v16.86"/><path class="cls-17" d="m21.61,8.41c-2.41,0-4.63.8-6.43,2.13v17.33c1.8,1.33,4.01,2.13,6.43,2.13,5.96,0,10.8-4.84,10.8-10.8s-4.84-10.8-10.8-10.8Z"/><circle class="cls-14" cx="21.61" cy="16.26" r=".65"/><rect class="cls-4" x="93.68" y="19.21" width="10.8" height="10.8" transform="translate(123.69 -74.47) rotate(90)"/><rect class="cls-2" x="57.08" y="8.41" width="2.51" height="21.6"/><polyline class="cls-9" points="57.04 5.01 62.04 5.01 62.04 .01"/><polygon class="cls-2" points="50.01 12.1 50.01 30.01 55.01 30.01 55.01 7.1 50.01 12.1"/><rect class="cls-24" x="57.04" y=".01" width="2.54" height="5"/><polyline class="cls-21" points="62.04 .01 57.04 .01 57.04 5.01"/><path class="cls-7" d="m51.21,10.95c-1.87-1.54-4.34-2.54-6.95-2.54-5.96,0-10.8,4.84-10.8,10.8,0,2.61,1.01,5.09,2.54,6.95l15.21-15.21Z"/><path class="cls-4" d="m51.16,10.96l-15.21,15.21c1.98,2.37,4.96,3.89,8.3,3.89,5.96,0,10.8-4.84,10.8-10.8,0-3.33-1.51-6.31-3.89-8.3Z"/><path class="cls-3" d="m37.39,7.1h0c-1.33-1.17-3.25.75-2.09,2.08h0c1.38,1.61,3.69-.7,2.09-2.08Z"/><path class="cls-6" d="m40.43,2.74h0c-.85-.75-2.08.48-1.34,1.33h0c.88,1.03,2.36-.45,1.34-1.33Z"/><path class="cls-5" d="m35.24,2.15h0c-.42-.37-1.04.24-.67.66h0c.44.51,1.18-.22.67-.66Z"/><rect class="cls-4" x="44.5" y="19.5" width="10.22" height="10.8" transform="translate(74.51 -24.7) rotate(90)"/><circle class="cls-14" cx="47.5" cy="13.5" r=".65"/><path class="cls-19" d="m88.52,26.85l-7.64-7.64-7.64,7.64c4.22,4.22,11.06,4.22,15.27,0Z"/><path class="cls-26" d="m88.52,11.58c-4.22-4.22-11.06-4.22-15.27,0l7.64,7.64,7.64-7.64Z"/><path class="cls-20" d="m88.52,11.58l-7.64,7.64,7.64,7.64c4.22-4.22,4.22-11.06,0-15.27Z"/><path class="cls-7" d="m115.23,18.28c-.23-2.41-1.27-4.87-3.12-6.71-4.22-4.22-11.06-4.22-15.27,0-1.84,1.84-2.88,4.31-3.12,6.71h21.51Z"/><rect class="cls-30" x="66.58" y="8.41" width="2.5" height="10.8"/><rect class="cls-29" x="66.58" y=".01" width="2.5" height="8.4"/><rect class="cls-1" x="66.58" y="19.21" width="2.5" height="10.8"/><circle class="cls-14" cx="80.88" cy="18.1" r=".65"/><circle class="cls-14" cx="67.37" cy="29.41" r=".65"/><circle class="cls-14" cx="60.38" cy="4.24" r=".65"/><circle class="cls-14" cx="99.47" cy="17.49" r=".65"/><rect class="cls-22" x="86.68" y="8.41" width="2.5" height="21.6"/><rect class="cls-13" x="96.18" y=".01" width="2.5" height="30"/><path class="cls-25" d="m13.31.01h-2.5v19.2c0-2.62.95-5,2.5-6.87V.01Z"/><polygon class="cls-15" points="50.01 15.1 50.01 30.01 55.01 30.01 55.01 10.1 50.01 15.1"/><path class="cls-25" d="m27.41,19.07v10.96c.81,0,1.25.01,2.5,0v-10.96h-2.5Z"/><path class="cls-31" d="m10.81,19.21v10.8h10.8c-5.96,0-10.8-4.84-10.8-10.8Z"/><path class="cls-31" d="m21.61,30.01h10.8v-10.8c0,5.96-4.84,10.8-10.8,10.8Z"/><path class="cls-23" d="m29.91,19.07v10.96c.81,0,1.25.01,2.5,0v-10.96h-2.5Z"/><path class="cls-23" d="m13.31.01v30c.81,0,1.25.04,2.5,0V.01h-2.5Z"/><path class="cls-25" d="m29.86,19.07h2.55c-.08-5.9-4.88-10.66-10.8-10.66-2.14,0-4.12.63-5.8,1.7v3.24c1.49-1.47,3.54-2.38,5.8-2.38,4.51,0,8.17,3.62,8.25,8.11Z"/></svg>