<?xml version="1.0" encoding="utf-8"?>
<!-- Generator: Adobe Illustrator 27.3.1, SVG Export Plug-In . SVG Version: 6.00 Build 0)  -->
<svg version="1.1" id="Logo" xmlns="http://www.w3.org/2000/svg" xmlns:xlink="http://www.w3.org/1999/xlink" x="0px" y="0px"
	 viewBox="0 0 104.5 30.2" style="enable-background:new 0 0 104.5 30.2;" xml:space="preserve">
<style type="text/css">
	.st0{fill:#FDC20F;}
	.st1{fill:#FFC516;}
	.st2{fill:#F3AB1D;}
	.st3{fill:#716AB0;}
	.st4{opacity:0.1;fill:#CA76B0;enable-background:new    ;}
	.st5{fill:#D28EBE;}
	.st6{fill:#AF59A3;}
	.st7{fill:#C876B0;}
	.st8{fill:#9A4C96;}
	.st9{fill:#E0AED0;}
	.st10{fill:#F5B51A;}
	.st11{fill:#C674B0;}
	.st12{fill:#B85AA2;}
	.st13{opacity:0.5;fill:#C876B0;enable-background:new    ;}
	.st14{fill:#FFFFFF;stroke:#FFFFFF;stroke-width:0.27;stroke-miterlimit:10;}
	.st15{fill:#D8A029;}
	.st16{fill:#CA992C;}
	.st17{opacity:0.5;fill:#FFC516;enable-background:new    ;}
	.st18{opacity:0.5;fill:#716AB0;enable-background:new    ;}
	.st19{opacity:0.4;fill:#716AB0;enable-background:new    ;}
	.st20{opacity:0.3;fill:#716AB0;enable-background:new    ;}
	.st21{opacity:0.2;fill:#716AB0;enable-background:new    ;}
	.st22{fill:#B05DA4;}
	.st23{fill:#D29AC5;}
	.st24{fill:#B863A7;}
	.st25{fill:#E5A424;}
	.st26{fill:#FDB518;}
	.st27{fill:#CA972B;}
	.st28{fill:#E5AD23;}
	.st29{fill:#F1A91E;}
	.st30{fill:#BE892C;}
	.st31{fill:#AC519E;}
</style>
<path class="st0" d="M5,10.1V0H0v19.2C0,15.4,2,12,5,10.1z"/>
<polygon class="st1" points="44.2,7.1 44.2,0 39.2,0 39.2,12.1 "/>
<rect x="78.4" y="8.4" class="st2" width="2.5" height="21.6"/>
<rect x="82.9" class="st1" width="2.5" height="30"/>
<path class="st3" d="M104.4,18.3H82.9c-0.3,3.1,0.8,6.3,3.1,8.6c4.2,4.2,11.1,4.2,15.3,0C103.7,24.5,104.7,21.3,104.4,18.3z"/>
<rect x="46.2" class="st1" width="5" height="5"/>
<path class="st4" d="M1.6,13.6c-1,1.6-1.6,3.6-1.6,5.6C0,25.2,4.8,30,10.8,30c5,0,9.1-3.3,10.4-7.9L1.6,13.6z"/>
<path class="st5" d="M5.9,9.6C2.4,11.3,0,15,0,19.2C0,25.2,4.8,30,10.8,30c2,0,3.8-0.5,5.4-1.5C16.2,28.5,5.9,9.6,5.9,9.6z"/>
<path class="st6" d="M19.9,13.4L0.4,22.2C1.8,26.7,5.9,30,10.8,30c6,0,10.8-4.8,10.8-10.8C21.6,17,21,15,19.9,13.4z"/>
<path class="st7" d="M15.6,9.6l-10.3,19c1.6,1,3.5,1.5,5.5,1.5c6,0,10.8-4.8,10.8-10.8C21.6,15,19.2,11.3,15.6,9.6z"/>
<path class="st8" d="M3.9,27.5C5.8,29,8.2,30,10.8,30s5-1,6.9-2.5H3.9L3.9,27.5z"/>
<path class="st9" d="M20.5,14.5c-1.7-3.6-5.4-6.1-9.7-6.1s-8,2.5-9.7,6.1H20.5L20.5,14.5z"/>
<rect x="48.7" y="8.4" class="st10" width="2.5" height="21.6"/>
<path class="st11" d="M62.4,11.6c-4.2,4.2-4.2,11.1,0,15.3l7.6-7.6L62.4,11.6L62.4,11.6z"/>
<rect x="53.3" class="st1" width="2.5" height="30"/>
<path class="st12" d="M17.7,27.5c2.4-2,3.9-4.9,3.9-8.3c0-3.5-1.7-6.6-4.2-8.6v16.9"/>
<path class="st13" d="M10.8,8.4c-2.4,0-4.6,0.8-6.4,2.1v17.3c1.8,1.3,4,2.1,6.4,2.1c6,0,10.8-4.8,10.8-10.8S16.8,8.4,10.8,8.4
	L10.8,8.4z"/>
<circle class="st14" cx="10.8" cy="16.2" r="0.6"/>
<rect x="82.9" y="19.2" class="st3" width="10.8" height="10.8"/>
<rect x="46.3" y="8.4" class="st15" width="2.5" height="21.6"/>
<polyline class="st10" points="46.2,5 51.2,5 51.2,0 "/>
<polygon class="st15" points="39.2,12.1 39.2,30 44.2,30 44.2,7.1 "/>
<rect x="46.2" class="st16" width="2.5" height="5"/>
<polyline class="st17" points="51.2,0 46.2,0 46.2,5 "/>
<path class="st18" d="M40.4,10.9c-1.9-1.5-4.3-2.5-7-2.5c-6,0-10.8,4.8-10.8,10.8c0,2.6,1,5.1,2.5,7L40.4,10.9z"/>
<path class="st3" d="M40.3,10.9L25.1,26.2c2,2.4,5,3.9,8.3,3.9c6,0,10.8-4.8,10.8-10.8C44.2,15.9,42.7,12.9,40.3,10.9z"/>
<path class="st19" d="M26.6,7.1L26.6,7.1c-1.3-1.2-3.2,0.8-2.1,2.1l0,0C25.9,10.8,28.2,8.5,26.6,7.1z"/>
<path class="st20" d="M29.6,2.7L29.6,2.7c-0.8-0.8-2.1,0.5-1.3,1.3l0,0C29.2,5.1,30.6,3.6,29.6,2.7z"/>
<path class="st21" d="M24.4,2.1L24.4,2.1c-0.4-0.4-1,0.2-0.7,0.7l0,0C24.2,3.3,24.9,2.6,24.4,2.1z"/>
<rect x="33.4" y="19.8" class="st3" width="10.8" height="10.2"/>
<circle class="st14" cx="36.7" cy="13.5" r="0.7"/>
<path class="st22" d="M77.7,26.8l-7.6-7.6l-7.6,7.6C66.7,31.1,73.5,31.1,77.7,26.8L77.7,26.8z"/>
<path class="st23" d="M77.7,11.6c-4.2-4.2-11.1-4.2-15.3,0l7.6,7.6L77.7,11.6L77.7,11.6z"/>
<path class="st24" d="M77.7,11.6l-7.6,7.6l7.6,7.6C81.9,22.6,81.9,15.8,77.7,11.6L77.7,11.6z"/>
<path class="st18" d="M104.4,18.3c-0.2-2.4-1.3-4.9-3.1-6.7c-4.2-4.2-11.1-4.2-15.3,0c-1.8,1.8-2.9,4.3-3.1,6.7
	C82.9,18.3,104.4,18.3,104.4,18.3z"/>
<rect x="55.8" y="8.4" class="st25" width="2.5" height="10.8"/>
<rect x="55.8" class="st26" width="2.5" height="8.4"/>
<rect x="55.8" y="19.2" class="st27" width="2.5" height="10.8"/>
<circle class="st14" cx="70.1" cy="18.1" r="0.7"/>
<circle class="st14" cx="56.6" cy="29.4" r="0.7"/>
<circle class="st14" cx="49.6" cy="4.2" r="0.7"/>
<circle class="st14" cx="88.7" cy="17.5" r="0.7"/>
<rect x="75.9" y="8.4" class="st1" width="2.5" height="21.6"/>
<rect x="85.4" class="st28" width="2.5" height="30"/>
<path class="st29" d="M2.5,0H0v19.2c0-2.6,0.9-5,2.5-6.9V0z"/>
<polygon class="st30" points="39.2,15.1 39.2,30 44.2,30 44.2,10.1 "/>
<path class="st29" d="M16.6,19.1v11c0.8,0,1.2,0,2.5,0v-11H16.6z"/>
<path class="st31" d="M0,19.2V30h10.8C4.8,30,0,25.2,0,19.2z"/>
<path class="st31" d="M10.8,30h10.8V19.2C21.6,25.2,16.8,30,10.8,30z"/>
<path class="st0" d="M19.1,19.1v11c0.8,0,1.2,0,2.5,0v-11H19.1z"/>
<path class="st0" d="M2.5,0v30c0.8,0,1.2,0,2.5,0V0H2.5z"/>
<path class="st29" d="M19.1,19.1h2.5c-0.1-5.9-4.9-10.7-10.8-10.7C8.7,8.4,6.7,9,5,10.1v3.2c1.5-1.5,3.5-2.4,5.8-2.4
	C15.3,11,19,14.6,19.1,19.1L19.1,19.1z"/>
</svg>
