<?xml version="1.0" encoding="UTF-8"?><svg id="Logo" xmlns="http://www.w3.org/2000/svg" viewBox="0 0 190.22 40.65"><defs><style>.cls-1{fill:#ca972b;}.cls-2{fill:#d8a029;}.cls-3,.cls-4{fill:#fff;}.cls-5{fill:#f5b51a;}.cls-6{fill:#f3ab1d;}.cls-7{fill:#e5ad23;}.cls-4{stroke:#fff;stroke-miterlimit:10;stroke-width:.27px;}.cls-8,.cls-9{fill:#009444;}.cls-10{fill:#be892c;}.cls-11{fill:#39b54a;}.cls-12,.cls-13,.cls-9,.cls-14{opacity:.5;}.cls-12,.cls-15{fill:#00a651;}.cls-13,.cls-16{fill:#ffc516;}.cls-17{fill:#ca992c;}.cls-18{fill:#fdb518;}.cls-19{fill:#e5a424;}.cls-14,.cls-20{fill:#006838;}</style></defs><rect class="cls-8" x="171.52" y="19.73" width="15.83" height="6.57"/><rect class="cls-11" x="171.52" y="12.1" width="15.83" height="6.56"/><rect class="cls-11" x="144.8" y="18.74" width="11.73" height="10.8" transform="translate(174.8 -126.53) rotate(90)"/><rect class="cls-20" x="139.35" y="18.74" width="11.73" height="10.8" transform="translate(169.35 -121.08) rotate(90)"/><rect class="cls-11" x="128.75" y="18.74" width="11.73" height="10.8" transform="translate(158.75 -110.48) rotate(90)"/><rect class="cls-16" x="49.14" y="7.92" width="2.5" height="8.46" transform="translate(38.24 62.54) rotate(-90)"/><polygon class="cls-16" points="21.55 7.09 21.55 0 16.55 0 16.55 12.09 21.55 7.09"/><rect class="cls-6" x="41.72" y="8.4" width="2.5" height="21.6"/><path class="cls-8" d="m25.78,11.56c-4.22,4.22-4.22,11.06,0,15.27l7.64-7.64-7.64-7.64Z"/><polygon class="cls-2" points="16.55 12.09 16.55 30 21.55 30 21.55 7.09 16.55 12.09"/><path class="cls-12" d="m17.75,10.94c-1.87-1.54-4.34-2.54-6.95-2.54C4.84,8.39,0,13.23,0,19.19c0,2.61,1.01,5.09,2.54,6.95l15.21-15.21Z"/><path class="cls-15" d="m17.7,10.94L2.49,26.15c1.98,2.37,4.96,3.89,8.3,3.89,5.96,0,10.8-4.84,10.8-10.8,0-3.33-1.51-6.31-3.89-8.3Z"/><rect class="cls-15" x="11.04" y="19.49" width="10.22" height="10.8" transform="translate(41.04 8.74) rotate(90)"/><circle class="cls-4" cx="14.03" cy="13.49" r=".65"/><path class="cls-20" d="m41.06,26.84l-7.64-7.64-7.64,7.64c4.22,4.22,11.06,4.22,15.27,0Z"/><path class="cls-11" d="m41.06,11.56c-4.22-4.22-11.06-4.22-15.27,0l7.64,7.64,7.64-7.64Z"/><path class="cls-8" d="m41.06,11.56l-7.64,7.64,7.64,7.64c4.22-4.22,4.22-11.06,0-15.27Z"/><circle class="cls-4" cx="33.42" cy="18.08" r=".65"/><rect class="cls-16" x="39.22" y="8.4" width="2.5" height="21.6"/><polygon class="cls-10" points="16.55 15.09 16.55 30 21.55 30 21.55 10.09 16.55 15.09"/><rect class="cls-16" x="49.62" y="0" width="2.5" height="19.2"/><rect class="cls-19" x="52.12" y="8.4" width="2.5" height="10.8"/><rect class="cls-18" x="52.12" y="0" width="2.5" height="8.4"/><rect class="cls-1" x="52.12" y="19.2" width="2.5" height="0"/><circle class="cls-4" cx="52.91" cy="29.39" r=".65"/><rect class="cls-19" x="49.14" y="5.42" width="2.5" height="8.46" transform="translate(40.74 60.04) rotate(-90)"/><path class="cls-8" d="m49.69,19.2c0,5.96,4.84,10.8,10.8,10.8v-10.8s-10.8,0-10.8,0Z"/><rect class="cls-3" x="58.24" y="18.08" width="2.25" height="19.84"/><rect class="cls-6" x="78.72" y="8.4" width="2.5" height="21.6"/><path class="cls-20" d="m62.78,11.56c-4.22,4.22-4.22,11.06,0,15.27l7.64-7.64-7.64-7.64Z"/><path class="cls-11" d="m78.06,26.84l-7.64-7.64-7.64,7.64c4.22,4.22,11.06,4.22,15.27,0Z"/><path class="cls-20" d="m78.06,11.56c-4.22-4.22-11.06-4.22-15.27,0l7.64,7.64,7.64-7.64Z"/><path class="cls-8" d="m78.06,11.56l-7.64,7.64,7.64,7.64c4.22-4.22,4.22-11.06,0-15.27Z"/><circle class="cls-4" cx="70.42" cy="18.08" r=".65"/><rect class="cls-16" x="76.22" y="8.4" width="2.5" height="21.6"/><rect class="cls-16" x="97.62" y="8.4" width="2.5" height="21.65"/><rect class="cls-19" x="100.12" y="8.4" width="2.5" height="10.8"/><rect class="cls-1" x="100.12" y="19.2" width="2.5" height="0"/><circle class="cls-4" cx="100.91" cy="29.39" r=".65"/><path class="cls-11" d="m93.84,30.05v10.6c5-.95,8.78-5.33,8.78-10.6h-8.78Z"/><rect class="cls-1" x="100.12" y="19.2" width="2.5" height="10.8"/><rect class="cls-16" x="97.58" y="0" width="5" height="5"/><polyline class="cls-5" points="97.58 5 102.58 5 102.58 0"/><rect class="cls-17" x="97.58" width="2.54" height="5"/><polyline class="cls-13" points="102.58 0 97.58 0 97.58 5"/><circle class="cls-4" cx="100.91" cy="4.23" r=".65"/><rect class="cls-6" x="123.72" y="8.4" width="2.5" height="21.6"/><path class="cls-11" d="m107.78,11.56c-4.22,4.22-4.22,11.06,0,15.27l7.64-7.64-7.64-7.64Z"/><path class="cls-15" d="m123.06,26.84l-7.64-7.64-7.64,7.64c4.22,4.22,11.06,4.22,15.27,0Z"/><path class="cls-15" d="m123.06,11.56c-4.22-4.22-11.06-4.22-15.27,0l7.64,7.64,7.64-7.64Z"/><path class="cls-20" d="m123.06,11.56l-7.64,7.64,7.64,7.64c4.22-4.22,4.22-11.06,0-15.27Z"/><circle class="cls-4" cx="115.42" cy="18.08" r=".65"/><rect class="cls-16" x="121.22" y="8.4" width="2.5" height="21.6"/><rect class="cls-16" x="129.22" y="8.4" width="2.5" height="21.6"/><path class="cls-14" d="m150.77,18.27c-.23-2.41-1.27-4.87-3.12-6.71-4.22-4.22-11.06-4.22-15.27,0-1.84,1.84-2.88,4.31-3.12,6.71h21.51Z"/><circle class="cls-4" cx="135.01" cy="17.48" r=".65"/><rect class="cls-7" x="131.72" y="8.39" width="2.5" height="21.61"/><rect class="cls-16" x="145.22" y="18.13" width="2.5" height="11.87"/><rect class="cls-20" x="155.55" y="18.74" width="11.73" height="10.8" transform="translate(185.55 -137.28) rotate(90)"/><path class="cls-9" d="m166.77,18.27c-.23-2.41-1.27-4.87-3.12-6.71-4.22-4.22-11.06-4.22-15.27,0-1.84,1.84-2.88,4.31-3.12,6.71h21.51Z"/><rect class="cls-7" x="147.72" y="18.27" width="2.9" height="11.73"/><path class="cls-16" d="m179.42,8.4v3.7h0c3.92,0,7.1,3.18,7.1,7.1h3.7c0-5.96-4.84-10.8-10.8-10.8Z"/><path class="cls-16" d="m172.32,19.2h-3.7c0,5.96,4.84,10.8,10.8,10.8v-3.7c-3.92,0-7.1-3.18-7.1-7.1Z"/><path class="cls-3" d="m186.52,19.2h3.7c0-.63-.07-1.25-.17-1.85h-3.78c.16.59.25,1.21.25,1.85Z"/><path class="cls-3" d="m172.32,19.2h-3.7c0,.63.07,1.25.17,1.85h3.78c-.16-.59-.25-1.21-.25-1.85Z"/><path class="cls-20" d="m186.52,19.2c0,3.92-3.18,7.1-7.1,7.1h0v3.7c5.96,0,10.8-4.84,10.8-10.8h-3.7Z"/><path class="cls-20" d="m179.42,12.1v-3.7c-5.96,0-10.8,4.84-10.8,10.8h3.7c0-3.92,3.18-7.1,7.1-7.1Z"/><rect class="cls-20" x="168.62" y="18.66" width="21.6" height="1.08"/></svg>